<mxfile host="app.diagrams.net" agent="Mozilla/5.0 (Windows NT 10.0; Win64; x64) AppleWebKit/537.36 (KHTML, like Gecko) Chrome/130.0.0.0 Safari/537.36" version="24.8.3">
  <diagram name="P치gina-1" id="XHNfMonxPdn028Cwz3c-">
    <mxGraphModel dx="1397" dy="797" grid="1" gridSize="10" guides="1" tooltips="1" connect="1" arrows="1" fold="1" page="1" pageScale="1" pageWidth="827" pageHeight="1169" math="0" shadow="0">
      <root>
        <mxCell id="0" />
        <mxCell id="1" parent="0" />
        <mxCell id="TAVK_coOYpjGwXcuMjcx-10" value="Usuario" style="verticalAlign=top;align=left;spacingTop=8;spacingLeft=2;spacingRight=12;shape=cube;size=10;direction=south;fontStyle=4;html=1;whiteSpace=wrap;" parent="1" vertex="1">
          <mxGeometry x="210" y="98" width="430" height="100" as="geometry" />
        </mxCell>
        <mxCell id="TAVK_coOYpjGwXcuMjcx-13" value="PC Navegador Web" style="shape=module;align=left;spacingLeft=20;align=center;verticalAlign=middle;whiteSpace=wrap;html=1;" parent="1" vertex="1">
          <mxGeometry x="250" y="128" width="100" height="50" as="geometry" />
        </mxCell>
        <mxCell id="TAVK_coOYpjGwXcuMjcx-21" value="Conexi칩n HTTP/HTTPS&amp;nbsp;" style="text;align=center;fontStyle=1;verticalAlign=middle;spacingLeft=3;spacingRight=3;strokeColor=none;rotatable=0;points=[[0,0.5],[1,0.5]];portConstraint=eastwest;html=1;" parent="1" vertex="1">
          <mxGeometry x="470" y="213" width="80" height="26" as="geometry" />
        </mxCell>
        <mxCell id="06kRDkESgxEJugPnR6Vu-1" value="Interfaz" style="shape=module;align=left;spacingLeft=20;align=center;verticalAlign=middle;whiteSpace=wrap;html=1;" vertex="1" parent="1">
          <mxGeometry x="377" y="128" width="100" height="50" as="geometry" />
        </mxCell>
        <mxCell id="06kRDkESgxEJugPnR6Vu-2" value="Firewall&amp;nbsp;&lt;div&gt;local&lt;/div&gt;" style="shape=module;align=left;spacingLeft=20;align=center;verticalAlign=middle;whiteSpace=wrap;html=1;" vertex="1" parent="1">
          <mxGeometry x="510" y="128" width="100" height="50" as="geometry" />
        </mxCell>
        <mxCell id="06kRDkESgxEJugPnR6Vu-3" value="Proxy de Seguridad" style="verticalAlign=middle;align=center;shape=cube;size=10;direction=south;fontStyle=0;html=1;boundedLbl=1;spacingLeft=5;whiteSpace=wrap;" vertex="1" parent="1">
          <mxGeometry x="345" y="264" width="160" height="50" as="geometry" />
        </mxCell>
        <mxCell id="06kRDkESgxEJugPnR6Vu-10" value="Impresora" style="verticalAlign=middle;align=center;spacingTop=8;spacingLeft=2;spacingRight=12;shape=cube;size=10;direction=south;fontStyle=4;html=1;whiteSpace=wrap;" vertex="1" parent="1">
          <mxGeometry x="510" y="690" width="150" height="100" as="geometry" />
        </mxCell>
        <mxCell id="06kRDkESgxEJugPnR6Vu-11" value="" style="group" vertex="1" connectable="0" parent="1">
          <mxGeometry x="255" y="349" width="320" height="110" as="geometry" />
        </mxCell>
        <mxCell id="06kRDkESgxEJugPnR6Vu-5" value="Servidor Web" style="verticalAlign=top;align=left;spacingTop=8;spacingLeft=2;spacingRight=12;shape=cube;size=10;direction=south;fontStyle=4;html=1;whiteSpace=wrap;" vertex="1" parent="06kRDkESgxEJugPnR6Vu-11">
          <mxGeometry width="320" height="110" as="geometry" />
        </mxCell>
        <mxCell id="06kRDkESgxEJugPnR6Vu-6" value="Apache&lt;br&gt;(XAAMP)" style="shape=module;align=left;spacingLeft=20;align=center;verticalAlign=middle;whiteSpace=wrap;html=1;" vertex="1" parent="06kRDkESgxEJugPnR6Vu-11">
          <mxGeometry x="20" y="45" width="130" height="50" as="geometry" />
        </mxCell>
        <mxCell id="06kRDkESgxEJugPnR6Vu-7" value="Aplicaci칩n Web&lt;br&gt;(HTML, CSS, JS)" style="shape=module;align=left;spacingLeft=20;align=center;verticalAlign=middle;whiteSpace=wrap;html=1;" vertex="1" parent="06kRDkESgxEJugPnR6Vu-11">
          <mxGeometry x="167" y="45" width="130" height="50" as="geometry" />
        </mxCell>
        <mxCell id="06kRDkESgxEJugPnR6Vu-12" value="" style="group" vertex="1" connectable="0" parent="1">
          <mxGeometry x="254" y="518" width="320" height="110" as="geometry" />
        </mxCell>
        <mxCell id="TAVK_coOYpjGwXcuMjcx-17" value="Servidor de Aplicaciones" style="verticalAlign=top;align=left;spacingTop=8;spacingLeft=2;spacingRight=12;shape=cube;size=10;direction=south;fontStyle=4;html=1;whiteSpace=wrap;" parent="06kRDkESgxEJugPnR6Vu-12" vertex="1">
          <mxGeometry width="320" height="110" as="geometry" />
        </mxCell>
        <mxCell id="TAVK_coOYpjGwXcuMjcx-19" value="Aplicaci칩n backend&lt;div&gt;(PHP, Apis, etc)&lt;/div&gt;" style="shape=module;align=left;spacingLeft=20;align=center;verticalAlign=middle;whiteSpace=wrap;html=1;" parent="06kRDkESgxEJugPnR6Vu-12" vertex="1">
          <mxGeometry x="20" y="40" width="130" height="50" as="geometry" />
        </mxCell>
        <mxCell id="06kRDkESgxEJugPnR6Vu-8" value="Acceso DB" style="shape=module;align=left;spacingLeft=20;align=center;verticalAlign=middle;whiteSpace=wrap;html=1;" vertex="1" parent="06kRDkESgxEJugPnR6Vu-12">
          <mxGeometry x="167" y="40" width="130" height="50" as="geometry" />
        </mxCell>
        <mxCell id="06kRDkESgxEJugPnR6Vu-13" value="" style="group" vertex="1" connectable="0" parent="1">
          <mxGeometry x="170" y="690" width="180" height="100" as="geometry" />
        </mxCell>
        <mxCell id="TAVK_coOYpjGwXcuMjcx-31" value="Base de datos" style="verticalAlign=top;align=left;spacingTop=8;spacingLeft=2;spacingRight=12;shape=cube;size=10;direction=south;fontStyle=4;html=1;whiteSpace=wrap;" parent="06kRDkESgxEJugPnR6Vu-13" vertex="1">
          <mxGeometry width="180" height="100" as="geometry" />
        </mxCell>
        <mxCell id="TAVK_coOYpjGwXcuMjcx-36" value="MySQL" style="shape=module;align=left;spacingLeft=20;align=center;verticalAlign=middle;whiteSpace=wrap;html=1;" parent="06kRDkESgxEJugPnR6Vu-13" vertex="1">
          <mxGeometry x="29" y="35" width="100" height="50" as="geometry" />
        </mxCell>
        <mxCell id="06kRDkESgxEJugPnR6Vu-15" value="" style="endArrow=none;html=1;rounded=0;entryX=0;entryY=0;entryDx=50;entryDy=85;entryPerimeter=0;exitX=0;exitY=0;exitDx=0;exitDy=155;exitPerimeter=0;" edge="1" parent="1" source="06kRDkESgxEJugPnR6Vu-5" target="06kRDkESgxEJugPnR6Vu-3">
          <mxGeometry width="50" height="50" relative="1" as="geometry">
            <mxPoint x="410" y="390" as="sourcePoint" />
            <mxPoint x="460" y="340" as="targetPoint" />
          </mxGeometry>
        </mxCell>
        <mxCell id="06kRDkESgxEJugPnR6Vu-17" value="" style="endArrow=none;html=1;rounded=0;entryX=0;entryY=0;entryDx=100;entryDy=220;entryPerimeter=0;" edge="1" parent="1" target="TAVK_coOYpjGwXcuMjcx-10">
          <mxGeometry width="50" height="50" relative="1" as="geometry">
            <mxPoint x="420" y="263" as="sourcePoint" />
            <mxPoint x="460" y="333" as="targetPoint" />
          </mxGeometry>
        </mxCell>
        <mxCell id="06kRDkESgxEJugPnR6Vu-18" value="" style="endArrow=none;html=1;rounded=0;exitX=0;exitY=0;exitDx=0;exitDy=155;exitPerimeter=0;entryX=1.008;entryY=0.489;entryDx=0;entryDy=0;entryPerimeter=0;" edge="1" parent="1" source="TAVK_coOYpjGwXcuMjcx-17" target="06kRDkESgxEJugPnR6Vu-5">
          <mxGeometry width="50" height="50" relative="1" as="geometry">
            <mxPoint x="450" y="520" as="sourcePoint" />
            <mxPoint x="420" y="460" as="targetPoint" />
          </mxGeometry>
        </mxCell>
        <mxCell id="06kRDkESgxEJugPnR6Vu-19" value="" style="endArrow=none;html=1;rounded=0;exitX=0;exitY=0;exitDx=0;exitDy=85;exitPerimeter=0;entryX=0;entryY=0;entryDx=110;entryDy=165;entryPerimeter=0;" edge="1" parent="1" source="TAVK_coOYpjGwXcuMjcx-31" target="TAVK_coOYpjGwXcuMjcx-17">
          <mxGeometry width="50" height="50" relative="1" as="geometry">
            <mxPoint x="450" y="730" as="sourcePoint" />
            <mxPoint x="500" y="680" as="targetPoint" />
            <Array as="points">
              <mxPoint x="265" y="670" />
              <mxPoint x="409" y="670" />
            </Array>
          </mxGeometry>
        </mxCell>
        <mxCell id="06kRDkESgxEJugPnR6Vu-20" value="" style="endArrow=none;html=1;rounded=0;entryX=0;entryY=0;entryDx=0;entryDy=70;entryPerimeter=0;" edge="1" parent="1" target="06kRDkESgxEJugPnR6Vu-10">
          <mxGeometry width="50" height="50" relative="1" as="geometry">
            <mxPoint x="410" y="670" as="sourcePoint" />
            <mxPoint x="500" y="680" as="targetPoint" />
            <Array as="points">
              <mxPoint x="590" y="670" />
            </Array>
          </mxGeometry>
        </mxCell>
      </root>
    </mxGraphModel>
  </diagram>
</mxfile>
